<?xml version="1.0" encoding="utf-8"?>
<!-- Generator: Adobe Illustrator 15.0.0, SVG Export Plug-In . SVG Version: 6.00 Build 0)  -->
<!DOCTYPE svg PUBLIC "-//W3C//DTD SVG 1.1//EN" "http://www.w3.org/Graphics/SVG/1.1/DTD/svg11.dtd">
<svg version="1.1" id="Layer_1" xmlns="http://www.w3.org/2000/svg" xmlns:xlink="http://www.w3.org/1999/xlink" x="0px" y="0px"
	 width="60px" height="60px" viewBox="0 0 60 60" enable-background="new 0 0 60 60" xml:space="preserve">
<g>
	<circle fill="#B22E24" cx="30" cy="30" r="30"/>
</g>
<g>
	<rect x="4.175" y="34.49" fill="#FFFFFF" width="51.649" height="1.65"/>
	<rect x="19.198" y="35.898" fill="#FFFFFF" width="21.771" height="1.383"/>
	<rect x="12.427" y="37.063" fill="#FFFFFF" width="35.388" height="1.311"/>
	<rect x="7.912" y="23.52" fill="#FFFFFF" width="7.719" height="11.213"/>
	<rect x="10.461" y="20.898" fill="#FFFFFF" width="2.476" height="4.367"/>
	<rect x="11.188" y="13.98" fill="#FFFFFF" width="0.947" height="8.082"/>
	<rect x="7.767" y="21.625" fill="#FFFFFF" width="8.01" height="0.803"/>
	<circle fill="#FFFFFF" cx="11.662" cy="16.492" r="1.493"/>
	<ellipse fill="#FFFFFF" cx="37.985" cy="31.201" rx="2.876" ry="3.094"/>
	<ellipse fill="#FFFFFF" cx="37.985" cy="28.434" rx="2.148" ry="1.785"/>
	<rect x="37.585" y="23.227" fill="#FFFFFF" width="0.801" height="4.078"/>
	<rect x="31.141" y="29.344" fill="#FFFFFF" width="13.688" height="1.094"/>
	<rect x="23.968" y="31.164" fill="#FFFFFF" width="28.034" height="1.311"/>
	<path fill="#FFFFFF" d="M22.476,38.01c0,0,6.262,3.859,6.845,7.936c0.655,0,1.384,0,1.384,0s2.912-5.824,6.771-7.863
		C33.907,38.082,22.476,38.01,22.476,38.01z"/>
	<path fill="#FFFFFF" d="M13.009,38.957h9.029c0,0,4.005,1.82,6.699,7.063c-4.077,0-9.466,0-9.466,0S19.126,43.471,13.009,38.957z"
		/>
	<path fill="#FFFFFF" d="M46.941,38.957h-9.029c0,0-4.005,1.82-6.699,7.063c4.078,0,9.467,0,9.467,0S40.824,43.471,46.941,38.957z"
		/>
</g>
</svg>
