<?xml version="1.0" encoding="utf-8"?>
<!-- Generator: Adobe Illustrator 15.0.0, SVG Export Plug-In . SVG Version: 6.00 Build 0)  -->
<!DOCTYPE svg PUBLIC "-//W3C//DTD SVG 1.1//EN" "http://www.w3.org/Graphics/SVG/1.1/DTD/svg11.dtd">
<svg version="1.1" id="Layer_1" xmlns="http://www.w3.org/2000/svg" xmlns:xlink="http://www.w3.org/1999/xlink" x="0px" y="0px"
	 width="66px" height="81px" viewBox="0 0 66 81" enable-background="new 0 0 66 81" xml:space="preserve">
<path fill-rule="evenodd" clip-rule="evenodd" fill="#FFFFFF" d="M66,33c0,32-33,48-33,48S0,65,0,33C0,14.774,14.774,0,33,0
	S66,14.774,66,33z"/>
<g>
	<circle fill="#B22E24" cx="33" cy="33" r="30"/>
</g>
<g>
	<rect x="7.175" y="37.49" fill="#FFFFFF" width="51.649" height="1.65"/>
	<rect x="22.198" y="38.898" fill="#FFFFFF" width="21.771" height="1.383"/>
	<rect x="15.427" y="40.063" fill="#FFFFFF" width="35.388" height="1.311"/>
	<rect x="10.912" y="26.52" fill="#FFFFFF" width="7.719" height="11.213"/>
	<rect x="13.461" y="23.898" fill="#FFFFFF" width="2.476" height="4.367"/>
	<rect x="14.188" y="16.98" fill="#FFFFFF" width="0.947" height="8.082"/>
	<rect x="10.767" y="24.625" fill="#FFFFFF" width="8.01" height="0.803"/>
	<circle fill="#FFFFFF" cx="14.662" cy="19.492" r="1.493"/>
	<ellipse fill="#FFFFFF" cx="40.985" cy="34.201" rx="2.876" ry="3.094"/>
	<ellipse fill="#FFFFFF" cx="40.985" cy="31.434" rx="2.148" ry="1.785"/>
	<rect x="40.585" y="26.227" fill="#FFFFFF" width="0.801" height="4.078"/>
	<rect x="34.141" y="32.344" fill="#FFFFFF" width="13.688" height="1.094"/>
	<rect x="26.968" y="34.164" fill="#FFFFFF" width="28.034" height="1.311"/>
	<path fill="#FFFFFF" d="M25.476,41.01c0,0,6.262,3.859,6.845,7.936c0.655,0,1.384,0,1.384,0s2.912-5.824,6.771-7.863
		C36.907,41.082,25.476,41.01,25.476,41.01z"/>
	<path fill="#FFFFFF" d="M16.009,41.957h9.029c0,0,4.005,1.82,6.699,7.063c-4.077,0-9.466,0-9.466,0S22.126,46.471,16.009,41.957z"
		/>
	<path fill="#FFFFFF" d="M49.941,41.957h-9.029c0,0-4.005,1.82-6.699,7.063c4.078,0,9.467,0,9.467,0S43.824,46.471,49.941,41.957z"
		/>
</g>
</svg>
