<?xml version="1.0" encoding="utf-8"?>
<!-- Generator: Adobe Illustrator 15.0.0, SVG Export Plug-In . SVG Version: 6.00 Build 0)  -->
<!DOCTYPE svg PUBLIC "-//W3C//DTD SVG 1.1//EN" "http://www.w3.org/Graphics/SVG/1.1/DTD/svg11.dtd">
<svg version="1.1" id="Layer_1" xmlns="http://www.w3.org/2000/svg" xmlns:xlink="http://www.w3.org/1999/xlink" x="0px" y="0px"
	 width="68px" height="68px" viewBox="0 0 68 68" enable-background="new 0 0 68 68" xml:space="preserve">
<g>
	<path fill="#1AB250" d="M34,66C16.355,66,2,51.645,2,34S16.355,2,34,2c17.645,0,32,14.355,32,32S51.645,66,34,66z"/>
	<path fill="#FFFFFF" d="M34,4c16.567,0,30,13.433,30,30c0,16.57-13.433,30-30,30C17.431,64,4,50.57,4,34C4,17.433,17.431,4,34,4
		 M34,0C15.252,0,0,15.252,0,34s15.252,34,34,34c18.748,0,34-15.252,34-34S52.748,0,34,0L34,0z"/>
</g>
<g>
	<path fill="#FFFFFF" d="M25.645,46.374c-1.031,1.032-2.271,1.55-3.721,1.55c-1.145,0-2.142-0.296-2.999-0.89
		c-0.859-0.593-1.485-1.394-1.88-2.406l-5.501,0.952l-0.263-2.627l5.438-0.874c0.044-0.531,0.155-0.995,0.33-1.394
		c0.174-0.399,0.373-0.821,0.593-1.266l-0.463-1.249l3.623-2.242l0.991,1.45l3.227-1.945l-1.282-2.201l9.068-5.319l1.307,2.217
		l3.746-1.982l2.881,0.628l14.729-8.192l1.25,1.297L32.994,37.379l2.107,0.266c1.101,0.394,1.979,1.043,2.637,1.94
		c0.66,0.905,0.99,1.923,0.99,3.064c0,1.453-0.52,2.695-1.55,3.725c-1.032,1.032-2.275,1.55-3.723,1.55
		c-1.452,0-2.69-0.518-3.723-1.55c-1.033-1.029-1.55-2.271-1.55-3.725h-0.99C27.193,44.103,26.676,45.345,25.645,46.374z"/>
	<polygon fill="#FFFFFF" points="35.861,28.5 50.683,20.076 51.396,20.583 36.598,29.052 	"/>
</g>
</svg>
