<?xml version="1.0" encoding="utf-8"?>
<!-- Generator: Adobe Illustrator 15.0.0, SVG Export Plug-In . SVG Version: 6.00 Build 0)  -->
<!DOCTYPE svg PUBLIC "-//W3C//DTD SVG 1.1//EN" "http://www.w3.org/Graphics/SVG/1.1/DTD/svg11.dtd">
<svg version="1.1" id="Layer_1" xmlns="http://www.w3.org/2000/svg" xmlns:xlink="http://www.w3.org/1999/xlink" x="0px" y="0px"
	 width="66px" height="81px" viewBox="0 0 66 81" enable-background="new 0 0 66 81" xml:space="preserve">
<path fill-rule="evenodd" clip-rule="evenodd" fill="#FFFFFF" d="M66,33c0,32-33,48-33,48S0,65,0,33C0,14.774,14.774,0,33,0
	S66,14.774,66,33z"/>
<g>
	<circle fill="#1AB250" cx="33" cy="33" r="30"/>
</g>
<g>
	<path fill="#FFFFFF" d="M24.645,45.374c-1.031,1.032-2.271,1.55-3.721,1.55c-1.145,0-2.142-0.296-2.999-0.89
		c-0.859-0.593-1.485-1.394-1.88-2.406l-5.501,0.952l-0.263-2.627l5.438-0.874c0.044-0.531,0.155-0.995,0.33-1.394
		c0.174-0.399,0.373-0.821,0.593-1.266l-0.463-1.249l3.623-2.242l0.991,1.45l3.227-1.945l-1.282-2.201l9.068-5.319l1.307,2.217
		l3.746-1.982l2.881,0.628l14.729-8.192l1.25,1.297L31.994,36.379l2.107,0.266c1.101,0.394,1.979,1.043,2.637,1.94
		c0.66,0.905,0.99,1.923,0.99,3.064c0,1.453-0.52,2.695-1.55,3.725c-1.032,1.032-2.275,1.55-3.723,1.55
		c-1.452,0-2.69-0.518-3.723-1.55c-1.033-1.029-1.55-2.271-1.55-3.725h-0.99C26.193,43.103,25.676,44.345,24.645,45.374z"/>
	<polygon fill="#FFFFFF" points="34.861,27.5 49.683,19.076 50.396,19.583 35.598,28.052 	"/>
</g>
</svg>
