<?xml version="1.0" encoding="utf-8"?>
<!-- Generator: Adobe Illustrator 15.0.0, SVG Export Plug-In . SVG Version: 6.00 Build 0)  -->
<!DOCTYPE svg PUBLIC "-//W3C//DTD SVG 1.1//EN" "http://www.w3.org/Graphics/SVG/1.1/DTD/svg11.dtd">
<svg version="1.1" id="Layer_1" xmlns="http://www.w3.org/2000/svg" xmlns:xlink="http://www.w3.org/1999/xlink" x="0px" y="0px"
	 width="68px" height="68px" viewBox="0 0 68 68" enable-background="new 0 0 68 68" xml:space="preserve">
<g>
	<path fill="#1AB250" d="M34,66C16.355,66,2,51.645,2,34S16.355,2,34,2s32,14.355,32,32S51.645,66,34,66z"/>
	<path fill="#FFFFFF" d="M34,4c16.568,0,30,13.433,30,30c0,16.57-13.432,30-30,30C17.431,64,4,50.57,4,34C4,17.433,17.431,4,34,4
		 M34,0C15.252,0,0,15.252,0,34s15.252,34,34,34s34-15.252,34-34S52.748,0,34,0L34,0z"/>
</g>
<path fill="#FFFFFF" d="M55.654,30.327v-1.036l-3.766-3.765H46.24v0.764h-2.176v-0.764H12.35l-3.769,5.647v1.882l0.987,3.768h0.895
	l3.767,1.884h0.99c0,1.034,0.366,1.922,1.104,2.658c0.738,0.738,1.624,1.108,2.658,1.108c1.037,0,1.924-0.37,2.662-1.108
	c0.738-0.736,1.105-1.624,1.105-2.658h0.893c0,1.034,0.371,1.922,1.105,2.658c0.738,0.738,1.625,1.108,2.662,1.108
	c1.035,0,1.92-0.37,2.658-1.108c0.738-0.736,1.105-1.624,1.105-2.658h6.498c0,1.034,0.371,1.922,1.107,2.658
	c0.736,0.738,1.621,1.108,2.658,1.108s1.922-0.37,2.66-1.108c0.736-0.736,1.105-1.624,1.105-2.658h1.037
	c0,1.034,0.367,1.922,1.104,2.658c0.74,0.738,1.625,1.108,2.662,1.108c1.033,0,1.922-0.37,2.658-1.108
	c0.738-0.736,1.109-1.624,1.109-2.658h0.891l2.873-1.884l1.883-3.768v-1.882L55.654,30.327z M19.023,40.576
	c-0.883,0-1.602-0.717-1.602-1.601c0-0.075,0.034-0.141,0.044-0.215h3.114c0.012,0.074,0.045,0.14,0.045,0.215
	C20.625,39.859,19.906,40.576,19.023,40.576z M27.469,40.576c-0.883,0-1.6-0.717-1.6-1.601c0-0.075,0.033-0.141,0.043-0.215h3.115
	c0.01,0.074,0.043,0.14,0.043,0.215C29.07,39.859,28.354,40.576,27.469,40.576z M41.596,40.576c-0.885,0-1.602-0.717-1.602-1.601
	c0-0.075,0.033-0.141,0.043-0.215h3.115c0.012,0.074,0.043,0.14,0.043,0.215C43.195,39.859,42.479,40.576,41.596,40.576z
	 M50.043,40.576c-0.885,0-1.602-0.717-1.602-1.601c0-0.075,0.033-0.141,0.043-0.215H51.6c0.01,0.074,0.043,0.14,0.043,0.215
	C51.643,39.859,50.926,40.576,50.043,40.576z M48.234,28.947v-1.898l3.369,0.023l0.617,1.875H48.234z"/>
</svg>
