<?xml version="1.0" encoding="utf-8"?>
<!-- Generator: Adobe Illustrator 15.0.0, SVG Export Plug-In . SVG Version: 6.00 Build 0)  -->
<!DOCTYPE svg PUBLIC "-//W3C//DTD SVG 1.1//EN" "http://www.w3.org/Graphics/SVG/1.1/DTD/svg11.dtd">
<svg version="1.1" id="Layer_1" xmlns="http://www.w3.org/2000/svg" xmlns:xlink="http://www.w3.org/1999/xlink" x="0px" y="0px"
	 width="66px" height="81px" viewBox="0 0 66 81" enable-background="new 0 0 66 81" xml:space="preserve">
<path fill-rule="evenodd" clip-rule="evenodd" fill="#FFFFFF" d="M66,33c0,32-33,48-33,48S0,65,0,33C0,14.774,14.774,0,33,0
	S66,14.774,66,33z"/>
<g>
	<circle fill="#1AB250" cx="33" cy="33" r="30"/>
</g>
<path fill="#FFFFFF" d="M54.654,29.327v-1.036l-3.766-3.765H45.24v0.764h-2.176v-0.764H11.35l-3.769,5.647v1.882l0.987,3.768h0.895
	l3.767,1.884h0.99c0,1.034,0.366,1.922,1.104,2.658c0.738,0.738,1.624,1.108,2.658,1.108c1.037,0,1.924-0.37,2.662-1.108
	c0.738-0.736,1.105-1.624,1.105-2.658h0.893c0,1.034,0.371,1.922,1.105,2.658c0.738,0.738,1.625,1.108,2.662,1.108
	c1.035,0,1.92-0.37,2.658-1.108c0.738-0.736,1.105-1.624,1.105-2.658h6.498c0,1.034,0.371,1.922,1.107,2.658
	c0.736,0.738,1.621,1.108,2.658,1.108s1.922-0.37,2.66-1.108c0.736-0.736,1.105-1.624,1.105-2.658h1.037
	c0,1.034,0.367,1.922,1.104,2.658c0.74,0.738,1.625,1.108,2.662,1.108c1.033,0,1.922-0.37,2.658-1.108
	c0.738-0.736,1.109-1.624,1.109-2.658h0.891l2.873-1.884l1.883-3.768v-1.882L54.654,29.327z M18.023,39.576
	c-0.883,0-1.602-0.717-1.602-1.601c0-0.075,0.034-0.141,0.044-0.215h3.114c0.012,0.074,0.045,0.14,0.045,0.215
	C19.625,38.859,18.906,39.576,18.023,39.576z M26.469,39.576c-0.883,0-1.6-0.717-1.6-1.601c0-0.075,0.033-0.141,0.043-0.215h3.115
	c0.01,0.074,0.043,0.14,0.043,0.215C28.07,38.859,27.354,39.576,26.469,39.576z M40.596,39.576c-0.885,0-1.602-0.717-1.602-1.601
	c0-0.075,0.033-0.141,0.043-0.215h3.115c0.012,0.074,0.043,0.14,0.043,0.215C42.195,38.859,41.479,39.576,40.596,39.576z
	 M49.043,39.576c-0.885,0-1.602-0.717-1.602-1.601c0-0.075,0.033-0.141,0.043-0.215H50.6c0.01,0.074,0.043,0.14,0.043,0.215
	C50.643,38.859,49.926,39.576,49.043,39.576z M47.234,27.947v-1.898l3.369,0.023l0.617,1.875H47.234z"/>
</svg>
