<?xml version="1.0" encoding="utf-8"?>
<!-- Generator: Adobe Illustrator 15.0.0, SVG Export Plug-In . SVG Version: 6.00 Build 0)  -->
<!DOCTYPE svg PUBLIC "-//W3C//DTD SVG 1.1//EN" "http://www.w3.org/Graphics/SVG/1.1/DTD/svg11.dtd">
<svg version="1.1" id="Layer_1" xmlns="http://www.w3.org/2000/svg" xmlns:xlink="http://www.w3.org/1999/xlink" x="0px" y="0px"
	 width="66px" height="81px" viewBox="0 0 66 81" enable-background="new 0 0 66 81" xml:space="preserve">
<path fill-rule="evenodd" clip-rule="evenodd" fill="#FFFFFF" d="M66,33c0,32-33,48-33,48S0,65,0,33C0,14.774,14.774,0,33,0
	S66,14.774,66,33z"/>
<g>
	<circle fill="#1AB250" cx="33" cy="33" r="30"/>
</g>
<path fill="#FFFFFF" d="M38.578,40.931h-0.305v4.444h-5.37v0.839h0.921l3.523,1.76v1.761H16.325v-1.761l8.696-1.76h0.881v-0.839
	H21.5v-6.206h5.283v-0.926h5.283v0.926h4.754c0-0.499,0.168-0.917,0.505-1.253c0.336-0.339,0.757-0.509,1.253-0.509l0.531,0.089
	V23.321h1.055v-1.764l2.951-5.293l3.037,5.286v17.618l3.522,3.522v4.445h-3.522v0.837l-0.879,1.761h-4.182l-0.928-1.761h-1.055
	v-7.043H38.578z"/>
</svg>
