<?xml version="1.0" encoding="utf-8"?>
<!-- Generator: Adobe Illustrator 15.0.0, SVG Export Plug-In . SVG Version: 6.00 Build 0)  -->
<!DOCTYPE svg PUBLIC "-//W3C//DTD SVG 1.1//EN" "http://www.w3.org/Graphics/SVG/1.1/DTD/svg11.dtd">
<svg version="1.1" id="Layer_1" xmlns="http://www.w3.org/2000/svg" xmlns:xlink="http://www.w3.org/1999/xlink" x="0px" y="0px"
	 width="68px" height="68px" viewBox="0 0 68 68" enable-background="new 0 0 68 68" xml:space="preserve">
<g>
	<path fill-rule="evenodd" clip-rule="evenodd" fill="#2355A6" d="M34,66C16.355,66,2,51.645,2,34S16.355,2,34,2s32,14.355,32,32
		S51.645,66,34,66z"/>
	<path fill="#FFFFFF" d="M34,4c16.568,0,30,13.432,30,30S50.568,64,34,64S4,50.568,4,34S17.432,4,34,4 M34,0C15.252,0,0,15.252,0,34
		s15.252,34,34,34s34-15.252,34-34S52.748,0,34,0L34,0z"/>
</g>
<g>
	<path fill="#FFFFFF" d="M31.901,46.25h-0.324c-0.266,0-0.482,0.219-0.482,0.486v6.777c0,0.27,0.217,0.486,0.482,0.486h0.324
		c0.268,0,0.482-0.217,0.482-0.486v-6.777C32.384,46.469,32.169,46.25,31.901,46.25L31.901,46.25z M31.901,46.25"/>
	<path fill="#FFFFFF" d="M47.583,14.268c-0.379-0.377-1.02-0.352-1.428,0.057l-9.865,9.867c-0.545-10.988-2.613-9.416-2.613-9.416
		s-2.002-1.756-2.586,8.799l-9.25-9.25c-0.406-0.408-1.047-0.434-1.424-0.057c-0.379,0.379-0.354,1.016,0.057,1.426l10.51,10.514
		c-0.027,1.021-0.043,2.131-0.047,3.338l-0.566,0.564h-1.215v1.215l-8.682,8.684c-0.41,0.408-0.436,1.047-0.057,1.426
		c0.377,0.379,1.016,0.354,1.424-0.057l7.314-7.314v1.215h1.939c0,0,0.785,4.355,1.27,5.406c0.486,1.049,0.02,10.734,1.313,10.734
		c0.238,0,0.418-0.334,0.555-0.887l3.965-1.699v-0.643H34.54c0.211-2.92,0.148-6.859,0.447-7.506
		c0.486-1.051,1.271-5.406,1.271-5.406h1.938v-1.859l7.959,7.959c0.408,0.41,1.049,0.436,1.428,0.057
		c0.377-0.379,0.354-1.018-0.057-1.426l-9.33-9.33v-0.568H37.63l-1.217-1.213c-0.004-0.723-0.016-1.41-0.029-2.063l11.143-11.141
		C47.937,15.287,47.96,14.646,47.583,14.268L47.583,14.268z M47.583,14.268"/>
</g>
</svg>
