<?xml version="1.0" encoding="utf-8"?>
<!-- Generator: Adobe Illustrator 15.0.0, SVG Export Plug-In . SVG Version: 6.00 Build 0)  -->
<!DOCTYPE svg PUBLIC "-//W3C//DTD SVG 1.1//EN" "http://www.w3.org/Graphics/SVG/1.1/DTD/svg11.dtd">
<svg version="1.1" id="Layer_1" xmlns="http://www.w3.org/2000/svg" xmlns:xlink="http://www.w3.org/1999/xlink" x="0px" y="0px"
	 width="60px" height="60px" viewBox="0 0 60 60" enable-background="new 0 0 60 60" xml:space="preserve">
<g>
	<circle fill="#B22E24" cx="30" cy="30" r="30"/>
</g>
<g>
	<path fill="#FFFFFF" d="M3.435,37.86l4.368-5.826c0,0,29.061,0.107,32.9-0.094c3.84-0.203,15.863-3.334,15.863-3.334l-10.609,9.047
		L3.435,37.86z"/>
	<polygon fill="#FFFFFF" points="10.256,29.886 11.469,28.472 17.194,32.444 14.028,32.513 	"/>
	<polygon fill="#FFFFFF" points="14.566,29.954 15.779,28.538 21.506,32.513 18.339,32.579 	"/>
	<polygon fill="#FFFFFF" points="18.474,29.886 19.687,28.472 25.413,32.444 22.246,32.513 	"/>
	<path fill="#FFFFFF" d="M25.142,33.321v-4.715h1.685v-1.281c0,0-1.076,1.078-1.076-0.066s0.268-2.426,0.808-2.357
		c0.538,0.066,0.471,0.941,0.538,1.213c0.943,0.066,1.482,0,1.482,0v-1.348c0,0-1.718-0.842-0.472-2.088
		c1.245-1.248,2.29,0.404,1.818,1.211c0.741,0,0.741,0,0.741,0s0.202-1.75,1.01-1.75c0.81,0,1.011,0,1.011,0l0.404,4.176h0.876
		v-0.809l-0.472-0.203v-1.076h0.674c0,0,0.337,1.076,0.337,2.154c0.438,0.439,1.55,1.416,2.021,3.1
		c1.886,0.201,1.896,0.223,1.896,0.223l5.447-1.568l0.142,0.494l-5.406,1.529c0,0,0,1.002-0.019,1.549
		c1.685,0,2.895-0.037,2.895-0.037l-0.008-1.328l3.07-0.389l5.321-1.887l0.227,0.49l-5.347,1.936v0.74v1.885L25.142,33.321z"/>
</g>
</svg>
