<?xml version="1.0" encoding="utf-8"?>
<!-- Generator: Adobe Illustrator 15.0.0, SVG Export Plug-In . SVG Version: 6.00 Build 0)  -->
<!DOCTYPE svg PUBLIC "-//W3C//DTD SVG 1.1//EN" "http://www.w3.org/Graphics/SVG/1.1/DTD/svg11.dtd">
<svg version="1.1" id="Layer_1" xmlns="http://www.w3.org/2000/svg" xmlns:xlink="http://www.w3.org/1999/xlink" x="0px" y="0px"
	 width="68px" height="68px" viewBox="0 0 68 68" enable-background="new 0 0 68 68" xml:space="preserve">
<g>
	<path fill="#B22E24" d="M34,66C16.355,66,2,51.645,2,34S16.355,2,34,2c17.645,0,32,14.355,32,32S51.645,66,34,66z"/>
	<path fill="#FFFFFF" d="M34,4c16.568,0,30,13.432,30,30S50.568,64,34,64S4,50.568,4,34S17.432,4,34,4 M34,0C15.252,0,0,15.252,0,34
		s15.252,34,34,34c18.748,0,34-15.252,34-34S52.748,0,34,0L34,0z"/>
</g>
<g>
	<path fill="#FFFFFF" d="M7.435,41.86l4.368-5.826c0,0,29.061,0.107,32.9-0.094c3.84-0.203,15.863-3.334,15.863-3.334l-10.609,9.047
		L7.435,41.86z"/>
	<polygon fill="#FFFFFF" points="14.256,33.886 15.469,32.472 21.194,36.444 18.028,36.513 	"/>
	<polygon fill="#FFFFFF" points="18.566,33.954 19.779,32.538 25.506,36.513 22.339,36.579 	"/>
	<polygon fill="#FFFFFF" points="22.474,33.886 23.687,32.472 29.413,36.444 26.246,36.513 	"/>
	<path fill="#FFFFFF" d="M29.142,37.321v-4.715h1.685v-1.281c0,0-1.076,1.078-1.076-0.066s0.268-2.426,0.808-2.357
		c0.538,0.066,0.471,0.941,0.538,1.213c0.943,0.066,1.482,0,1.482,0v-1.348c0,0-1.718-0.842-0.472-2.088
		c1.245-1.248,2.29,0.404,1.818,1.211c0.741,0,0.741,0,0.741,0s0.202-1.75,1.01-1.75c0.81,0,1.011,0,1.011,0l0.404,4.176h0.876
		v-0.809l-0.472-0.203v-1.076h0.674c0,0,0.337,1.076,0.337,2.154c0.438,0.439,1.55,1.416,2.021,3.1
		c1.886,0.201,1.896,0.223,1.896,0.223l5.447-1.568l0.142,0.494l-5.406,1.529c0,0,0,1.002-0.019,1.549
		c1.685,0,2.895-0.037,2.895-0.037l-0.008-1.328l3.07-0.389l5.321-1.887l0.227,0.49l-5.347,1.936v0.74v1.885L29.142,37.321z"/>
</g>
</svg>
