<?xml version="1.0" encoding="utf-8"?>
<!-- Generator: Adobe Illustrator 15.0.0, SVG Export Plug-In . SVG Version: 6.00 Build 0)  -->
<!DOCTYPE svg PUBLIC "-//W3C//DTD SVG 1.1//EN" "http://www.w3.org/Graphics/SVG/1.1/DTD/svg11.dtd">
<svg version="1.1" id="Layer_1" xmlns="http://www.w3.org/2000/svg" xmlns:xlink="http://www.w3.org/1999/xlink" x="0px" y="0px"
	 width="68px" height="68px" viewBox="0 0 68 68" enable-background="new 0 0 68 68" xml:space="preserve">
<g>
	<path fill-rule="evenodd" clip-rule="evenodd" fill="#2355A6" d="M34,66C16.355,66,2,51.645,2,34S16.355,2,34,2s32,14.355,32,32
		S51.645,66,34,66z"/>
	<path fill="#FFFFFF" d="M34,4c16.568,0,30,13.432,30,30S50.568,64,34,64S4,50.568,4,34S17.432,4,34,4 M34,0C15.252,0,0,15.252,0,34
		s15.252,34,34,34s34-15.252,34-34S52.748,0,34,0L34,0z"/>
</g>
<path fill="#FFFFFF" d="M36.936,42.902v-6.01h4.237l17.935-2.465c0,0,0-0.246,0-1.674c0-1.43-0.493-1.381-0.493-1.381l-10.971-0.41
	c0-0.27,0-0.686,0-1.33c0-1.168-0.095-1.896-0.218-2.348h1.918v-0.197h-1.978c-0.216-0.615-0.479-0.541-0.479-0.541h-0.021
	c0,0-0.262-0.074-0.478,0.541h-1.973v0.197h1.913c-0.123,0.451-0.218,1.18-0.218,2.348c0,0.602,0,1.002,0,1.273l-4.775-0.178
	c0-0.18,0-0.59,0-1.539c0-0.881-0.064-1.486-0.155-1.904h1.855v-0.197h-1.903c-0.224-0.811-0.552-0.727-0.552-0.727h-0.021
	c0,0-0.329-0.084-0.553,0.727h-1.899v0.197h1.852c-0.092,0.418-0.155,1.023-0.155,1.904c0,0.861,0,1.277,0,1.48l-2.279-0.086
	c0,0,0-0.688,0-1.33c0-0.639-0.789-0.936-0.789-0.936s0-5.223,0-6.848c0-1.627-1.083-2.908-1.379-3.498
	c-0.197-2.021-1.184-1.971-1.184-1.971h-0.018c0,0-0.985-0.051-1.183,1.971c-0.296,0.59-1.38,1.871-1.38,3.498
	c0,1.625,0,6.848,0,6.848s-0.788,0.297-0.788,0.936c0,0.643,0,1.33,0,1.33l-2.303,0.088c0-0.203,0-0.619,0-1.482
	c0-0.881-0.064-1.486-0.155-1.904h1.853v-0.197H28.3c-0.224-0.811-0.552-0.727-0.552-0.727h-0.021c0,0-0.329-0.084-0.553,0.727h-1.9
	v0.197h1.853c-0.091,0.418-0.154,1.023-0.154,1.904c0,0.951,0,1.361,0,1.539l-4.776,0.178c0-0.27,0-0.672,0-1.273
	c0-1.168-0.095-1.896-0.217-2.348h1.915v-0.197h-1.976c-0.216-0.615-0.478-0.541-0.478-0.541H21.42c0,0-0.262-0.074-0.477,0.541
	h-1.976v0.197h1.914c-0.122,0.451-0.217,1.18-0.217,2.348c0,0.646,0,1.061,0,1.332L9.719,31.373c0,0-0.493-0.049-0.493,1.381
	c0,1.428,0,1.674,0,1.674l17.936,2.465h4.236v6.01c0,0,0.049,1.822,0.395,2.021c-3.055,0.738-6.75,1.773-6.75,1.773
	s-0.739,0.098-0.739,1.23s-0.147,1.15,1.594,1.363s7.439,0.197,7.439,1.232s0.114,1.479,0.821,1.479h0.018
	c0.707,0,0.822-0.443,0.822-1.479s5.699-1.02,7.44-1.232s1.594-0.23,1.594-1.363s-0.74-1.23-0.74-1.23s-3.695-1.035-6.75-1.773
	C36.886,44.725,36.936,42.902,36.936,42.902z"/>
</svg>
