<?xml version="1.0" encoding="utf-8"?>
<!-- Generator: Adobe Illustrator 15.0.0, SVG Export Plug-In . SVG Version: 6.00 Build 0)  -->
<!DOCTYPE svg PUBLIC "-//W3C//DTD SVG 1.1//EN" "http://www.w3.org/Graphics/SVG/1.1/DTD/svg11.dtd">
<svg version="1.1" id="Layer_1" xmlns="http://www.w3.org/2000/svg" xmlns:xlink="http://www.w3.org/1999/xlink" x="0px" y="0px"
	 width="68px" height="68px" viewBox="0 0 68 68" enable-background="new 0 0 68 68" xml:space="preserve">
<g>
	<path fill-rule="evenodd" clip-rule="evenodd" fill="#2355A6" d="M34,66C16.355,66,2,51.645,2,34S16.355,2,34,2
		c17.645,0,32,14.355,32,32S51.645,66,34,66z"/>
	<path fill="#FFFFFF" d="M34,4c16.568,0,30,13.432,30,30S50.568,64,34,64S4,50.568,4,34S17.432,4,34,4 M34,0C15.252,0,0,15.252,0,34
		s15.252,34,34,34c18.748,0,34-15.252,34-34S52.748,0,34,0L34,0z"/>
</g>
<path fill-rule="evenodd" clip-rule="evenodd" fill="#FFFFFF" d="M14.01,39.945c1.543-1.297,3.084-2.592,4.625-3.887
	c0.34-0.285,0.689-0.559,1.008-0.865c0.113-0.109,0.203-0.299,0.207-0.457c0.025-0.637,0.043-1.277,0.004-1.912
	c-0.057-0.969,0.605-1.494,1.268-1.523c0.75-0.033,1.264,0.504,1.359,1.453c0.096-0.063,0.182-0.105,0.252-0.164
	c0.805-0.68,1.617-1.352,2.406-2.049c0.133-0.117,0.225-0.346,0.232-0.525c0.027-0.625,0.01-1.25,0.01-1.875
	c0.002-0.863,0.48-1.439,1.223-1.475c0.771-0.035,1.279,0.449,1.385,1.318c0.004,0.023,0.018,0.045,0.045,0.111
	c0.156-0.131,0.303-0.25,0.447-0.371c0.975-0.824,1.943-1.652,2.924-2.467c0.191-0.158,0.25-0.322,0.256-0.563
	c0.041-1.873,0.084-3.746,0.162-5.617c0.025-0.633,0.125-1.27,0.248-1.893c0.223-1.127,0.889-2.039,1.537-2.947
	c0.252-0.35,0.58-0.311,0.865,0.092c0.854,1.209,1.584,2.475,1.639,4.014c0.076,2.119,0.158,4.236,0.227,6.355
	c0.006,0.238,0.061,0.402,0.254,0.563c1.07,0.889,2.129,1.795,3.191,2.693c0.057,0.049,0.117,0.092,0.199,0.156
	c0.029-0.176,0.041-0.314,0.074-0.447c0.162-0.652,0.73-1.055,1.393-0.996c0.627,0.057,1.133,0.564,1.156,1.217
	c0.027,0.715,0,1.432,0.018,2.146c0.004,0.152,0.051,0.355,0.156,0.445c0.861,0.754,1.742,1.486,2.617,2.225
	c0.025,0.021,0.066,0.023,0.125,0.041c0.02-0.705,0.309-1.217,1.014-1.395c0.807-0.201,1.574,0.375,1.598,1.207
	c0.02,0.729-0.004,1.457,0.012,2.186c0.004,0.139,0.057,0.322,0.154,0.404c1.891,1.607,3.793,3.203,5.691,4.801
	c0,1.014,0,2.029,0,3.045c-0.186,0.17-0.377,0.156-0.605,0.066c-1.475-0.578-2.953-1.15-4.436-1.711
	c-0.225-0.084-0.289-0.203-0.279-0.43c0.016-0.344,0.004-0.689,0.004-1.027c-0.531,0-0.996,0-1.479,0
	c-0.012,0.246-0.023,0.473-0.033,0.686c-0.041,0.018-0.057,0.031-0.064,0.027c-1.674-0.639-3.35-1.273-5.02-1.926
	c-0.09-0.035-0.162-0.217-0.17-0.334C41.887,37.973,41.9,37.6,41.9,37.238c-0.531,0-1.004,0-1.514,0c0,0.27,0,0.508,0,0.791
	c-1.363-0.523-2.68-1.029-4.045-1.553c0,0.207,0,0.359,0,0.512c0,2.303,0,4.607,0,6.91c0,0.777,0.107,1.578-0.568,2.201
	c0.164,0.105,0.268,0.18,0.377,0.244c1.982,1.191,3.965,2.385,5.955,3.566c0.24,0.145,0.348,0.303,0.344,0.59
	c-0.016,1,0.002,2.004-0.014,3.006c-0.002,0.166-0.102,0.33-0.158,0.494c-0.104,0-0.207,0-0.313,0
	c-0.391-0.193-0.775-0.398-1.172-0.58c-1.912-0.873-3.826-1.742-5.711-2.598c-0.264,0.539-0.508,1.066-0.777,1.582
	c-0.166,0.322-0.441,0.322-0.611,0c-0.27-0.514-0.52-1.039-0.785-1.58c-1.947,0.887-3.932,1.787-5.914,2.693
	c-0.324,0.148-0.639,0.32-0.959,0.482c-0.104,0-0.209,0-0.313,0c-0.057-0.164-0.158-0.328-0.16-0.492
	c-0.016-0.988,0.004-1.977-0.016-2.965c-0.006-0.314,0.102-0.49,0.371-0.65c1.98-1.172,3.949-2.359,5.922-3.543
	c0.115-0.07,0.229-0.145,0.385-0.244c-0.566-0.563-0.58-1.229-0.576-1.92c0.016-2.432,0.008-4.863,0.006-7.295
	c0-0.123-0.014-0.244-0.023-0.406c-1.355,0.521-2.67,1.027-4.02,1.545c-0.016-0.301-0.027-0.553-0.039-0.791
	c-0.512,0-0.984,0-1.473,0c0,0.344-0.021,0.656,0.006,0.965c0.029,0.311-0.078,0.459-0.375,0.566
	c-0.988,0.357-1.967,0.748-2.947,1.125c-0.639,0.244-1.277,0.49-1.945,0.748c-0.014-0.281-0.023-0.508-0.035-0.752
	c-0.496,0-0.969,0-1.477,0c0,0.357-0.014,0.693,0.004,1.029c0.012,0.227-0.059,0.342-0.283,0.426
	c-1.48,0.561-2.957,1.133-4.432,1.711c-0.227,0.09-0.42,0.104-0.605-0.066C14.01,41.975,14.01,40.959,14.01,39.945z"/>
</svg>
