<?xml version="1.0" encoding="utf-8"?>
<!-- Generator: Adobe Illustrator 15.0.0, SVG Export Plug-In . SVG Version: 6.00 Build 0)  -->
<!DOCTYPE svg PUBLIC "-//W3C//DTD SVG 1.1//EN" "http://www.w3.org/Graphics/SVG/1.1/DTD/svg11.dtd">
<svg version="1.1" id="Layer_1" xmlns="http://www.w3.org/2000/svg" xmlns:xlink="http://www.w3.org/1999/xlink" x="0px" y="0px"
	 width="68px" height="68px" viewBox="0 0 68 68" enable-background="new 0 0 68 68" xml:space="preserve">
<g>
	<path fill-rule="evenodd" clip-rule="evenodd" fill="#2355A6" d="M34,66C16.355,66,2,51.645,2,34S16.355,2,34,2
		c17.645,0,32,14.355,32,32S51.645,66,34,66z"/>
	<path fill="#FFFFFF" d="M34,4c16.568,0,30,13.432,30,30S50.568,64,34,64S4,50.568,4,34S17.432,4,34,4 M34,0C15.252,0,0,15.252,0,34
		s15.252,34,34,34c18.748,0,34-15.252,34-34S52.748,0,34,0L34,0z"/>
</g>
<path fill="#FFFFFF" d="M41.377,52.389c0,0-4.869-3.063-6.32-3.965c1.871-3.676,1.807-7.127,1.807-7.127s0-5.416,0-6.705
	c0.611-0.871,0.709-1.773,0.709-1.773l16.023,3.967c0-0.678,0.004-0.871-0.385-1.902c-0.301-0.686-0.646-0.902-0.646-0.902
	l-7.096-4.021c0.951-1.18,0.873-1.75,0.873-1.75V26.5c0-0.871-1.033-0.828-1.033-0.828h-0.01c0,0-1.031-0.043-1.031,0.828v1.709
	c0,0-0.014,0.477,0.672,1.449l-4.086-2.314c0.92-1.154,0.846-1.715,0.846-1.715V23.92c0-0.869-1.033-0.826-1.033-0.826h-0.01
	c0,0-1.031-0.043-1.031,0.826v1.709c0,0-0.016,0.449,0.611,1.365l-3.244-1.838c0,0,0-0.559,0-2.988c0-4.557-1.578-7.084-1.871-7.631
	c-0.287-0.537-1.096-0.535-1.096-0.535h-0.049c0,0-0.809-0.002-1.096,0.535c-0.293,0.547-1.871,3.074-1.871,7.631
	c0,2.43,0,2.988,0,2.988l-3.395,1.924c0.688-0.975,0.672-1.451,0.672-1.451V23.92c0-0.869-1.031-0.826-1.031-0.826h-0.012
	c0,0-1.031-0.043-1.031,0.826v1.709c0,0-0.078,0.572,0.873,1.752l-4.174,2.363c0.75-1.033,0.732-1.535,0.732-1.535V26.5
	c0-0.871-1.031-0.828-1.031-0.828h-0.012c0,0-1.031-0.043-1.031,0.828v1.709c0,0-0.08,0.574,0.881,1.762l0.002,0.033l-7.016,3.977
	c0,0-0.346,0.217-0.646,0.902c-0.389,1.031-0.387,1.225-0.387,1.902l16.025-3.967c0,0,0.096,0.902,0.711,1.773
	c0,1.289,0,6.705,0,6.705s-0.066,3.451,1.803,7.127c-1.449,0.902-6.318,3.965-6.318,3.965l-0.064,1.613l7.215-1.537
	c0.092,1.32,0.207,1.537,0.207,1.537h0.039c0,0,0.113-0.217,0.205-1.537l7.215,1.537L41.377,52.389z"/>
</svg>
