<?xml version="1.0" encoding="utf-8"?>
<!-- Generator: Adobe Illustrator 15.0.0, SVG Export Plug-In . SVG Version: 6.00 Build 0)  -->
<!DOCTYPE svg PUBLIC "-//W3C//DTD SVG 1.1//EN" "http://www.w3.org/Graphics/SVG/1.1/DTD/svg11.dtd">
<svg version="1.1" id="Layer_1" xmlns="http://www.w3.org/2000/svg" xmlns:xlink="http://www.w3.org/1999/xlink" x="0px" y="0px"
	 width="68px" height="68px" viewBox="0 0 68 68" enable-background="new 0 0 68 68" xml:space="preserve">
<g>
	<path fill-rule="evenodd" clip-rule="evenodd" fill="#2355A6" d="M34,66C16.355,66,2,51.645,2,34S16.355,2,34,2
		c17.645,0,32,14.355,32,32S51.645,66,34,66z"/>
	<path fill="#FFFFFF" d="M34,4c16.568,0,30,13.432,30,30S50.568,64,34,64S4,50.568,4,34S17.432,4,34,4 M34,0C15.252,0,0,15.252,0,34
		s15.252,34,34,34c18.748,0,34-15.252,34-34S52.748,0,34,0L34,0z"/>
</g>
<path fill="#FFFFFF" d="M36.439,34.508l-1.283-17.785l-0.852-1l-1.361-1.711l-1.326,1.711l-0.727,1l-0.451,17.785L9,37.941V39h6.007
	l15.611,0.773c-0.035,0.107-0.055,0.919,0.316,4.782c-1.725,2.443-3.309,5.224-4.816,8.315c0,0.574-0.072,1.317,0.789,1.03
	c0.863-0.287,2.158-0.638,2.158-0.638s0.646-0.713,1.15-1.215c0.502-0.504,0.863-1.076,0.863-1.076s0,2.202,0.719,2.202
	c0.717,0,0.861-0.175,0.861-0.175h0.094c0,0,0.039-0.225,0.119-0.238C32.952,52.775,32.989,53,32.989,53h0.094
	c0,0,0.145,0.176,0.863,0.176s0.719-2.372,0.719-2.372s0.359,0.665,0.863,1.169c0.502,0.502,1.15,1.271,1.15,1.271
	s1.293,0.392,2.158,0.679c0.861,0.287,0.789-0.398,0.789-0.973c-1.51-3.094-3.092-5.779-4.816-8.225
	c0.369-3.861,0.352-4.845,0.314-4.952L50.737,39H59v-1.059L36.439,34.508z"/>
</svg>
