<?xml version="1.0" encoding="utf-8"?>
<!-- Generator: Adobe Illustrator 15.0.0, SVG Export Plug-In . SVG Version: 6.00 Build 0)  -->
<!DOCTYPE svg PUBLIC "-//W3C//DTD SVG 1.1//EN" "http://www.w3.org/Graphics/SVG/1.1/DTD/svg11.dtd">
<svg version="1.1" id="Layer_1" xmlns="http://www.w3.org/2000/svg" xmlns:xlink="http://www.w3.org/1999/xlink" x="0px" y="0px"
	 width="68px" height="67.998px" viewBox="0 0 68 67.998" enable-background="new 0 0 68 67.998" xml:space="preserve">
<g>
	<path fill-rule="evenodd" clip-rule="evenodd" fill="#2355A6" d="M34,65.998C16.355,65.998,2,51.644,2,34C2,16.355,16.355,2,34,2
		s32,14.355,32,32C66,51.644,51.645,65.998,34,65.998z"/>
	<path fill="#FFFFFF" d="M34,4c16.568,0,30,13.432,30,30S50.568,63.998,34,63.998S4,50.568,4,34S17.432,4,34,4 M34,0
		C15.252,0,0,15.252,0,34c0,18.746,15.252,33.998,34,33.998S68,52.746,68,34C68,15.252,52.748,0,34,0L34,0z"/>
</g>
<path fill="#FFFFFF" d="M34.593,51.184h2.826c0,0,0.333,0.707,0.541,1.039c0.207,0.334,0.913,0.707,0.913,0.707
	s1.123,0.457,2.826,0.873c1.704,0.416,1.04,0.125,1.621-0.457c0.583-0.584-0.207-1.455-0.207-1.455l-2.411-3.283l-0.457,0.332
	l-1.496-1.744l0.249-1.996h3.949c0,0,1.413,0.498,2.659,0.791c1.248,0.291,1.331,0,1.331,0s0.638-1.096,1.122-2.037
	c0.325-0.635,0-0.998,0-0.998l-9.684-9.891c0,0,0,0,0-1.373c0-2.451-0.666-2.66-0.666-2.66s0-1.412,0-2.494
	c0-1.08-0.457-1.08-0.457-1.08h-1.122c0,0-0.208-5.361-0.208-6.316c-0.665-4.822-1.33-5.07-1.33-5.07c-0.205-0.16-0.412,0-0.412,0
	s-0.664,0.248-1.329,5.07c0,0.955-0.208,6.316-0.208,6.316h-1.122c0,0-0.457,0-0.457,1.08c0,1.082,0,2.494,0,2.494
	s-0.666,0.209-0.666,2.66c0,1.373,0,1.373,0,1.373l-9.684,9.891c0,0-0.386,0.25,0,0.998c0.484,0.941,1.122,2.037,1.122,2.037
	s0.083,0.291,1.329,0c1.248-0.293,2.661-0.791,2.661-0.791h3.948l0.25,1.996l-1.496,1.744l-0.458-0.332l-2.411,3.283
	c0,0-0.789,0.871-0.207,1.455c0.582,0.582-0.084,0.873,1.62,0.457S29.9,52.93,29.9,52.93s0.706-0.373,0.914-0.707
	c0.208-0.332,0.541-1.039,0.541-1.039h2.825H34.593z"/>
</svg>
