<?xml version="1.0" encoding="utf-8"?>
<!-- Generator: Adobe Illustrator 15.0.0, SVG Export Plug-In . SVG Version: 6.00 Build 0)  -->
<!DOCTYPE svg PUBLIC "-//W3C//DTD SVG 1.1//EN" "http://www.w3.org/Graphics/SVG/1.1/DTD/svg11.dtd">
<svg version="1.1" id="Layer_1" xmlns="http://www.w3.org/2000/svg" xmlns:xlink="http://www.w3.org/1999/xlink" x="0px" y="0px"
	 width="66px" height="81px" viewBox="0 0 66 81" enable-background="new 0 0 66 81" xml:space="preserve">
<path fill-rule="evenodd" clip-rule="evenodd" fill="#FFFFFF" d="M66,33c0,32-33,48-33,48S0,65,0,33C0,14.774,14.774,0,33,0
	S66,14.774,66,33z"/>
<g>
	<circle fill-rule="evenodd" clip-rule="evenodd" fill="#2355A6" cx="33" cy="33" r="30"/>
</g>
<path fill="#FFFFFF" d="M46.446,12.959c-0.375-0.375-1.008-0.35-1.414,0.055l-8.464,8.465c-0.19-0.861-0.35-2.014-0.527-3.596
	C35.189,10.213,32.68,10,32.68,10s-2.425,0.213-3.276,7.883c-0.144,1.316-0.277,2.338-0.431,3.139l-8.009-8.008
	c-0.402-0.404-1.035-0.43-1.41-0.055c-0.374,0.373-0.35,1.008,0.057,1.412l8.707,8.709c-0.84,1.391-2.366,1.023-5.995,2.422
	c0,0-0.769,1.863,0.019,3.195c0,0,3.723,0.684,5.508,1.504l-8.238,8.24c-0.406,0.402-0.431,1.035-0.057,1.41
	c0.375,0.375,1.005,0.35,1.41-0.057L29.26,31.5c0.141,0.072,0.315,0.125,0.54,0.125l1.813,12.518l-4.419,0.852l-0.427-1.012
	c0,0-0.637,3.674,0.056,4.848L27.887,50l0.48-1.064l-0.534-0.961l4.129,0.799c0,0,0.078,0.961,0.718,0.961s0.806-0.961,0.806-0.961
	l4.213-0.799l-0.53,0.961L37.646,50l1.067-1.17c0.692-1.174,0.053-4.848,0.053-4.848l-0.428,1.012l-4.419-0.852l1.811-12.518
	c0.402,0,0.655-0.162,0.808-0.324l8.495,8.494c0.406,0.406,1.039,0.432,1.414,0.057c0.374-0.375,0.35-1.006-0.057-1.41l-8.382-8.387
	c1.872-0.756,5.161-1.361,5.161-1.361c0.787-1.328,0-3.195,0-3.195c-3.33-1.279-4.902-1.08-5.798-2.107l9.019-9.02
	C46.796,13.967,46.82,13.332,46.446,12.959L46.446,12.959z M46.446,12.959"/>
</svg>
