<?xml version="1.0" encoding="utf-8"?>
<!-- Generator: Adobe Illustrator 15.0.0, SVG Export Plug-In . SVG Version: 6.00 Build 0)  -->
<!DOCTYPE svg PUBLIC "-//W3C//DTD SVG 1.1//EN" "http://www.w3.org/Graphics/SVG/1.1/DTD/svg11.dtd">
<svg version="1.1" id="Layer_1" xmlns="http://www.w3.org/2000/svg" xmlns:xlink="http://www.w3.org/1999/xlink" x="0px" y="0px"
	 width="68px" height="68px" viewBox="0 0 68 68" enable-background="new 0 0 68 68" xml:space="preserve">
<g>
	<path fill="#1AB250" d="M34.001,66C16.355,66,2,51.645,2,34S16.355,2,34.001,2C51.646,2,66,16.355,66,34S51.646,66,34.001,66z"/>
	<path fill="#FFFFFF" d="M34.001,4C50.568,4,64,17.43,64,34c0,16.568-13.432,30-29.999,30C17.431,64,4,50.568,4,34
		C4,17.43,17.431,4,34.001,4 M34.001,0C15.253,0,0,15.252,0,34s15.253,34,34.001,34C52.748,68,68,52.748,68,34S52.748,0,34.001,0
		L34.001,0z"/>
</g>
<g>
	<path fill="#FFFFFF" d="M16.777,37.98l-3.488-3.456l0.127-1.544h41.295l-1.801,3.086h-2.186c0,0-1.416-2.444-4.631-2.444
		c-3.217,0-5.533,2.444-5.533,5.532H29.627c0,0-0.26-5.401-5.404-5.401c-5.146,0-5.146,4.242-5.146,4.242L16.777,37.98z"/>
	<polygon fill="#FFFFFF" points="14.896,32.048 15.861,31.372 18.758,30.696 20.686,28.768 28.309,28.768 28.934,29.394 
		41.527,29.394 42.586,28.477 53.199,28.477 54.551,31.951 	"/>
	<polygon fill="#FFFFFF" points="43.068,24.616 33.035,24.616 31.828,25.823 21.939,25.823 21.939,26.644 31.975,26.644 
		32.891,27.56 39.885,27.56 43.068,26.259 	"/>
	<path fill="#FFFFFF" d="M24.352,34.411c-2.479,0-4.488,2.009-4.488,4.485c0,2.479,2.01,4.486,4.488,4.486s4.486-2.007,4.486-4.486
		C28.838,36.42,26.83,34.411,24.352,34.411z M24.352,40.489c-0.879,0-1.594-0.716-1.594-1.593c0-0.879,0.715-1.592,1.594-1.592
		s1.592,0.713,1.592,1.592C25.943,39.773,25.23,40.489,24.352,40.489z"/>
	<path fill="#FFFFFF" d="M45.965,34.411c-2.479,0-4.488,2.009-4.488,4.485c0,2.479,2.01,4.486,4.488,4.486
		c2.477,0,4.484-2.007,4.484-4.486C50.449,36.42,48.441,34.411,45.965,34.411z M45.965,40.489c-0.881,0-1.594-0.716-1.594-1.593
		c0-0.879,0.713-1.592,1.594-1.592c0.879,0,1.592,0.713,1.592,1.592C47.557,39.773,46.844,40.489,45.965,40.489z"/>
</g>
</svg>
