<?xml version="1.0" encoding="utf-8"?>
<!-- Generator: Adobe Illustrator 15.0.0, SVG Export Plug-In . SVG Version: 6.00 Build 0)  -->
<!DOCTYPE svg PUBLIC "-//W3C//DTD SVG 1.1//EN" "http://www.w3.org/Graphics/SVG/1.1/DTD/svg11.dtd">
<svg version="1.1" id="Layer_1" xmlns="http://www.w3.org/2000/svg" xmlns:xlink="http://www.w3.org/1999/xlink" x="0px" y="0px"
	 width="60px" height="60px" viewBox="0 0 60 60" enable-background="new 0 0 60 60" xml:space="preserve">
<g>
	<circle fill="#1AB250" cx="30" cy="30" r="30"/>
</g>
<g>
	<path fill="#FFFFFF" d="M12.777,33.98l-3.488-3.456l0.127-1.544h41.295l-1.801,3.086h-2.186c0,0-1.416-2.444-4.631-2.444
		c-3.217,0-5.533,2.444-5.533,5.532H25.627c0,0-0.26-5.401-5.404-5.401c-5.146,0-5.146,4.242-5.146,4.242L12.777,33.98z"/>
	<polygon fill="#FFFFFF" points="10.896,28.048 11.861,27.372 14.758,26.696 16.686,24.768 24.309,24.768 24.934,25.394 
		37.527,25.394 38.586,24.477 49.199,24.477 50.551,27.951 	"/>
	<polygon fill="#FFFFFF" points="39.068,20.616 29.035,20.616 27.828,21.823 17.939,21.823 17.939,22.644 27.975,22.644 
		28.891,23.56 35.885,23.56 39.068,22.259 	"/>
	<path fill="#FFFFFF" d="M20.352,30.411c-2.479,0-4.488,2.009-4.488,4.485c0,2.479,2.01,4.486,4.488,4.486s4.486-2.007,4.486-4.486
		C24.838,32.42,22.83,30.411,20.352,30.411z M20.352,36.489c-0.879,0-1.594-0.716-1.594-1.593c0-0.879,0.715-1.592,1.594-1.592
		s1.592,0.713,1.592,1.592C21.943,35.773,21.23,36.489,20.352,36.489z"/>
	<path fill="#FFFFFF" d="M41.965,30.411c-2.479,0-4.488,2.009-4.488,4.485c0,2.479,2.01,4.486,4.488,4.486
		c2.477,0,4.484-2.007,4.484-4.486C46.449,32.42,44.441,30.411,41.965,30.411z M41.965,36.489c-0.881,0-1.594-0.716-1.594-1.593
		c0-0.879,0.713-1.592,1.594-1.592c0.879,0,1.592,0.713,1.592,1.592C43.557,35.773,42.844,36.489,41.965,36.489z"/>
</g>
</svg>
