<?xml version="1.0" encoding="utf-8"?>
<!-- Generator: Adobe Illustrator 15.0.0, SVG Export Plug-In . SVG Version: 6.00 Build 0)  -->
<!DOCTYPE svg PUBLIC "-//W3C//DTD SVG 1.1//EN" "http://www.w3.org/Graphics/SVG/1.1/DTD/svg11.dtd">
<svg version="1.1" id="Layer_1" xmlns="http://www.w3.org/2000/svg" xmlns:xlink="http://www.w3.org/1999/xlink" x="0px" y="0px"
	 width="66px" height="81px" viewBox="0 0 66 81" enable-background="new 0 0 66 81" xml:space="preserve">
<path fill-rule="evenodd" clip-rule="evenodd" fill="#FFFFFF" d="M66,33c0,32-33,48-33,48S0,65,0,33C0,14.774,14.774,0,33,0
	S66,14.774,66,33z"/>
<g>
	<circle fill="#1AB250" cx="33" cy="33" r="30"/>
</g>
<g>
	<path fill="#FFFFFF" d="M15.777,36.98l-3.488-3.456l0.127-1.544h41.295l-1.801,3.086h-2.186c0,0-1.416-2.444-4.631-2.444
		c-3.217,0-5.533,2.444-5.533,5.532H28.627c0,0-0.26-5.401-5.404-5.401c-5.146,0-5.146,4.242-5.146,4.242L15.777,36.98z"/>
	<polygon fill="#FFFFFF" points="13.896,31.048 14.861,30.372 17.758,29.696 19.686,27.768 27.309,27.768 27.934,28.394 
		40.527,28.394 41.586,27.477 52.199,27.477 53.551,30.951 	"/>
	<polygon fill="#FFFFFF" points="42.068,23.616 32.035,23.616 30.828,24.823 20.939,24.823 20.939,25.644 30.975,25.644 
		31.891,26.56 38.885,26.56 42.068,25.259 	"/>
	<path fill="#FFFFFF" d="M23.352,33.411c-2.479,0-4.488,2.009-4.488,4.485c0,2.479,2.01,4.486,4.488,4.486s4.486-2.007,4.486-4.486
		C27.838,35.42,25.83,33.411,23.352,33.411z M23.352,39.489c-0.879,0-1.594-0.716-1.594-1.593c0-0.879,0.715-1.592,1.594-1.592
		s1.592,0.713,1.592,1.592C24.943,38.773,24.23,39.489,23.352,39.489z"/>
	<path fill="#FFFFFF" d="M44.965,33.411c-2.479,0-4.488,2.009-4.488,4.485c0,2.479,2.01,4.486,4.488,4.486
		c2.477,0,4.484-2.007,4.484-4.486C49.449,35.42,47.441,33.411,44.965,33.411z M44.965,39.489c-0.881,0-1.594-0.716-1.594-1.593
		c0-0.879,0.713-1.592,1.594-1.592c0.879,0,1.592,0.713,1.592,1.592C46.557,38.773,45.844,39.489,44.965,39.489z"/>
</g>
</svg>
