<?xml version="1.0" encoding="utf-8"?>
<!-- Generator: Adobe Illustrator 15.0.0, SVG Export Plug-In . SVG Version: 6.00 Build 0)  -->
<!DOCTYPE svg PUBLIC "-//W3C//DTD SVG 1.1//EN" "http://www.w3.org/Graphics/SVG/1.1/DTD/svg11.dtd">
<svg version="1.1" id="Layer_1" xmlns="http://www.w3.org/2000/svg" xmlns:xlink="http://www.w3.org/1999/xlink" x="0px" y="0px"
	 width="60px" height="60px" viewBox="0 0 60 60" enable-background="new 0 0 60 60" xml:space="preserve">
<g>
	<circle fill="#1AB250" cx="30" cy="30" r="30"/>
</g>
<g>
	<polygon fill="#FFFFFF" points="10.727,10.955 15.139,18.162 17.932,14.778 	"/>
	<polygon fill="#FFFFFF" points="16.021,19.044 18.668,15.956 32.344,29.19 29.107,32.72 	"/>
	<polygon fill="#FFFFFF" points="22.711,27.501 28.152,32.794 28.299,33.896 25.873,33.823 	"/>
	<polygon fill="#FFFFFF" points="27.365,23.001 32.688,28.413 33.791,28.556 33.705,26.127 	"/>
	<polygon fill="#FFFFFF" points="30.211,33.75 33.373,30.073 43.52,39.41 39.328,43.602 	"/>
	<path fill="#FFFFFF" d="M34.99,40.809l5.588,5.588l-1.691,2.647C38.887,49.044,36.461,47.426,34.99,40.809z"/>
	<path fill="#FFFFFF" d="M40.674,35.599l6.148,4.963l2.453-1.964C49.275,38.598,47.408,36.357,40.674,35.599z"/>
	<polygon fill="#FFFFFF" points="42.564,45.146 41.756,44.043 41.756,42.72 42.857,41.838 44.4,42.133 44.99,42.794 	"/>
</g>
</svg>
