<?xml version="1.0" encoding="utf-8"?>
<!-- Generator: Adobe Illustrator 15.0.0, SVG Export Plug-In . SVG Version: 6.00 Build 0)  -->
<!DOCTYPE svg PUBLIC "-//W3C//DTD SVG 1.1//EN" "http://www.w3.org/Graphics/SVG/1.1/DTD/svg11.dtd">
<svg version="1.1" id="Layer_1" xmlns="http://www.w3.org/2000/svg" xmlns:xlink="http://www.w3.org/1999/xlink" x="0px" y="0px"
	 width="66px" height="81px" viewBox="0 0 66 81" enable-background="new 0 0 66 81" xml:space="preserve">
<path fill-rule="evenodd" clip-rule="evenodd" fill="#FFFFFF" d="M66,33c0,32-33,48-33,48S0,65,0,33C0,14.774,14.774,0,33,0
	S66,14.774,66,33z"/>
<g>
	<circle fill="#1AB250" cx="33" cy="33" r="30"/>
</g>
<g>
	<polygon fill="#FFFFFF" points="13.727,13.955 18.139,21.162 20.932,17.778 	"/>
	<polygon fill="#FFFFFF" points="19.021,22.044 21.668,18.956 35.344,32.19 32.107,35.72 	"/>
	<polygon fill="#FFFFFF" points="25.711,30.501 31.152,35.794 31.299,36.896 28.873,36.823 	"/>
	<polygon fill="#FFFFFF" points="30.365,26.001 35.688,31.413 36.791,31.556 36.705,29.127 	"/>
	<polygon fill="#FFFFFF" points="33.211,36.75 36.373,33.073 46.52,42.41 42.328,46.602 	"/>
	<path fill="#FFFFFF" d="M37.99,43.809l5.588,5.588l-1.691,2.647C41.887,52.044,39.461,50.426,37.99,43.809z"/>
	<path fill="#FFFFFF" d="M43.674,38.599l6.148,4.963l2.453-1.964C52.275,41.598,50.408,39.357,43.674,38.599z"/>
	<polygon fill="#FFFFFF" points="45.564,48.146 44.756,47.043 44.756,45.72 45.857,44.838 47.4,45.133 47.99,45.794 	"/>
</g>
</svg>
