<?xml version="1.0" encoding="utf-8"?>
<!-- Generator: Adobe Illustrator 15.0.0, SVG Export Plug-In . SVG Version: 6.00 Build 0)  -->
<!DOCTYPE svg PUBLIC "-//W3C//DTD SVG 1.1//EN" "http://www.w3.org/Graphics/SVG/1.1/DTD/svg11.dtd">
<svg version="1.1" id="Layer_1" xmlns="http://www.w3.org/2000/svg" xmlns:xlink="http://www.w3.org/1999/xlink" x="0px" y="0px"
	 width="68px" height="68px" viewBox="0 0 68 68" enable-background="new 0 0 68 68" xml:space="preserve">
<g>
	<path fill="#1AB250" d="M34,66C16.355,66,2,51.645,2,34S16.355,2,34,2s32,14.355,32,32S51.645,66,34,66z"/>
	<path fill="#FFFFFF" d="M34,4c16.568,0,30,13.433,30,30c0,16.57-13.432,30-30,30S4,50.57,4,34C4,17.433,17.432,4,34,4 M34,0
		C15.252,0,0,15.252,0,34s15.252,34,34,34s34-15.252,34-34S52.748,0,34,0L34,0z"/>
</g>
<g>
	<polygon fill="#FFFFFF" points="14.727,14.955 19.139,22.162 21.932,18.778 	"/>
	<polygon fill="#FFFFFF" points="20.021,23.044 22.668,19.956 36.344,33.19 33.107,36.72 	"/>
	<polygon fill="#FFFFFF" points="26.711,31.501 32.152,36.794 32.299,37.896 29.873,37.823 	"/>
	<polygon fill="#FFFFFF" points="31.365,27.001 36.688,32.413 37.791,32.556 37.705,30.127 	"/>
	<polygon fill="#FFFFFF" points="34.211,37.75 37.373,34.073 47.52,43.41 43.328,47.602 	"/>
	<path fill="#FFFFFF" d="M38.99,44.809l5.588,5.588l-1.691,2.647C42.887,53.044,40.461,51.426,38.99,44.809z"/>
	<path fill="#FFFFFF" d="M44.674,39.599l6.148,4.963l2.453-1.964C53.275,42.598,51.408,40.357,44.674,39.599z"/>
	<polygon fill="#FFFFFF" points="46.564,49.146 45.756,48.043 45.756,46.72 46.857,45.838 48.4,46.133 48.99,46.794 	"/>
</g>
</svg>
