<?xml version="1.0" encoding="utf-8"?>
<!-- Generator: Adobe Illustrator 15.0.0, SVG Export Plug-In . SVG Version: 6.00 Build 0)  -->
<!DOCTYPE svg PUBLIC "-//W3C//DTD SVG 1.1//EN" "http://www.w3.org/Graphics/SVG/1.1/DTD/svg11.dtd">
<svg version="1.1" id="Layer_1" xmlns="http://www.w3.org/2000/svg" xmlns:xlink="http://www.w3.org/1999/xlink" x="0px" y="0px"
	 width="60px" height="60px" viewBox="0 0 60 60" enable-background="new 0 0 60 60" xml:space="preserve">
<g>
	<circle fill="#B22E24" cx="30" cy="30" r="30"/>
</g>
<g>
	<path fill="#FFFFFF" d="M53.937,34.45c-0.133-2.162-4.139-3.74-7.445-4.43c-1.395-0.291-2.989-0.469-4.703-0.584
		c-0.226-0.109-0.466-0.023-0.575-0.611c-0.059-0.316-0.453-3.365-0.518-3.811c-0.065-0.443-0.004-1.078-0.703-1.332
		c-0.699-0.252-3.242-0.5-5.848-0.24c-2.603,0.262-4.471,0.85-4.635,1.348c-0.253,0.764-0.691,2.352-0.944,3.307
		c-0.181,0.686-0.401,1.049-0.717,1.242c-3.227,0.201-6.267,0.521-7.35,0.748c-1.841,0.389-1.507,0.734-1.712,1.148
		c-0.379,0.764-2.033,0.643-3.303,0.963c-0.594,0.152-2.295,0.648-3.893,1.176c-0.373-0.787-0.776-1.664-0.844-1.893
		c-0.127-0.445-0.35-0.605-0.605-0.604c-0.252,0-1.205,0.004-1.588,0.004c-0.383,0.002-0.443,0.129-0.443,0.445
		c0.001,0.264,0.006,2.322,0.009,3.449c-0.698,0.412-1.396,0.936-1.396,1.258c0,0.23,0.57,0.668,1.402,1.156
		c0.002,1.156,0.007,2.979,0.007,3.225c0.002,0.316,0.065,0.445,0.446,0.443c0.382-0.002,1.334-0.002,1.588-0.004
		c0.255,0,0.479-0.16,0.604-0.605c0.053-0.189,0.327-0.807,0.628-1.455c1.804,0.756,3.397,1.273,5.379,1.535
		c4.703,0.623,20.02,0.773,26.243,0.121C47.762,39.954,54.065,36.544,53.937,34.45z"/>
	<path fill="#FFFFFF" d="M7.514,33.935c-0.135,0.998-0.189,2.078-0.713,2.078c-0.523,0.002-0.613-1.248-0.727-2.248
		c-0.077-0.693,0.191-1.387,0.714-1.387C7.313,32.376,7.663,32.839,7.514,33.935z"/>
	<path fill="#FFFFFF" d="M7.529,38.493c-0.142-1-0.203-2.078-0.727-2.076s-0.605,1.25-0.713,2.252
		c-0.072,0.693,0.201,1.385,0.725,1.385C7.34,40.05,7.686,39.589,7.529,38.493z"/>
	<path fill="#FFFFFF" d="M36.972,25.112c-0.002-0.455-0.021-4.91-0.022-5.244c-0.001-0.535,0.426-0.74,0.894-0.74
		c0.469,0,0.605,0,0.878,0c0.271-0.002,0.585,0.236,0.585,0.451c0.001,0.215-0.21,0.43-0.406,0.453
		c-0.193,0.023-0.136,0.002-0.292,0.002s-0.176,0.07-0.176,0.191c0,0.117,0.02,4.885,0.02,4.885L36.972,25.112z"/>
</g>
</svg>
