<?xml version="1.0" encoding="utf-8"?>
<!-- Generator: Adobe Illustrator 15.0.0, SVG Export Plug-In . SVG Version: 6.00 Build 0)  -->
<!DOCTYPE svg PUBLIC "-//W3C//DTD SVG 1.1//EN" "http://www.w3.org/Graphics/SVG/1.1/DTD/svg11.dtd">
<svg version="1.1" id="Layer_1" xmlns="http://www.w3.org/2000/svg" xmlns:xlink="http://www.w3.org/1999/xlink" x="0px" y="0px"
	 width="66px" height="81px" viewBox="0 0 66 81" enable-background="new 0 0 66 81" xml:space="preserve">
<path fill-rule="evenodd" clip-rule="evenodd" fill="#FFFFFF" d="M66,33c0,32-33,48-33,48S0,65,0,33C0,14.774,14.774,0,33,0
	S66,14.774,66,33z"/>
<g>
	<circle fill-rule="evenodd" clip-rule="evenodd" fill="#2355A6" cx="33" cy="33.002" r="30"/>
</g>
<path fill="#FFFFFF" d="M52.397,31.262c-0.295-0.671-0.641-0.885-0.641-0.885l-6.89-3.895l0.15-0.032
	C45.959,25.286,46,24.723,46,24.723v-1.674C46,22.195,44.752,22,44.752,22h-0.011c0,0-0.741,0.195-0.741,1.049v1.674
	c0,0-0.035,0.493,0.699,1.505l-3.962-2.315C41.669,22.756,42,22.195,42,22.195v-1.674C42,19.67,40.203,20,40.203,20h-0.011
	c0,0-1.192-0.33-1.192,0.521v1.674c0,0,0.318,0.468,0.992,1.421L37,21.732c0,0,0-0.548,0-2.928c0-4.464-1.775-6.788-2.061-7.323
	C34.705,11.046,34,10.539,33,10.375v-0.362L32.768,10h0.048c0,0,0.023,0.166,0.032,0.17c-0.156,0.061-1.658,0.733-1.926,1.233
	C30.636,11.938,29,14.341,29,18.805c0,2.38,0,2.928,0,2.928l-2.992,1.884C26.68,22.663,27,22.195,27,22.195v-1.674
	C27,19.67,25.5,20,25.5,20h-0.011c0,0-1.489-0.33-1.489,0.521v1.674c0,0,0.162,0.561,1.093,1.717l-3.948,2.315
	C21.878,25.216,22,24.723,22,24.723v-1.674C22,22.195,20.951,22,20.951,22H20.94c0,0-0.94,0.195-0.94,1.049v1.674
	c0,0-0.113,0.563,0.828,1.728l-0.016,0.032l-6.883,3.895c0,0-0.344,0.214-0.639,0.885c-0.379,1.012-0.257,1.2-0.257,1.864L15,32.667
	v10.12c0,0.219,0.281,0.396,0.5,0.396s0.5-0.178,0.5-0.396v-9.834l0.172-0.584l12.403-3.129c0,0,0.425,0.885,0.425,1.737
	c0,1.264,0,6.57,0,6.57s0.089,3.38,1.92,6.981c-1.421,0.883-6.114,3.886-6.114,3.886l-0.024,1.579l7.086-1.546
	c0.082,1.151,0.816,1.456,0.979,1.501C32.826,49.955,32.811,50,32.811,50h-0.039c0,0,0.052,0.009,0.103-0.003
	C32.875,49.998,32.882,50,32.882,50h0.038c0,0,0.014-0.023,0.034-0.088c0.267-0.105,0.817-0.466,0.885-1.442l7.102,1.534
	l0.006-1.584c0,0-4.6-3.006-6.021-3.889C36.756,40.93,37,37.548,37,37.548s0-5.307,0-6.57c0-0.853,0.446-1.737,0.446-1.737
	l12.244,3.129L50,32.953v9.834c0,0.219,0.281,0.396,0.5,0.396s0.5-0.178,0.5-0.396v-10.12l1.81,0.459
	C52.81,32.462,52.777,32.273,52.397,31.262z"/>
</svg>
