<?xml version="1.0" encoding="utf-8"?>
<!-- Generator: Adobe Illustrator 15.0.0, SVG Export Plug-In . SVG Version: 6.00 Build 0)  -->
<!DOCTYPE svg PUBLIC "-//W3C//DTD SVG 1.1//EN" "http://www.w3.org/Graphics/SVG/1.1/DTD/svg11.dtd">
<svg version="1.1" id="Layer_1" xmlns="http://www.w3.org/2000/svg" xmlns:xlink="http://www.w3.org/1999/xlink" x="0px" y="0px"
	 width="60px" height="59.998px" viewBox="0 0 60 59.998" enable-background="new 0 0 60 59.998" xml:space="preserve">
<g>
	<circle fill-rule="evenodd" clip-rule="evenodd" fill="#2355A6" cx="30" cy="30" r="30"/>
</g>
<path fill="#FFFFFF" d="M49.397,31.26c-0.295-0.671-0.641-0.885-0.641-0.885l-6.89-3.895l0.15-0.032
	C42.959,25.284,43,24.721,43,24.721v-1.674c0-0.854-1.248-1.049-1.248-1.049h-0.011c0,0-0.741,0.195-0.741,1.049v1.674
	c0,0-0.035,0.493,0.699,1.505l-3.962-2.315C38.669,22.754,39,22.193,39,22.193V20.52c0-0.852-1.797-0.521-1.797-0.521h-0.011
	c0,0-1.192-0.33-1.192,0.521v1.674c0,0,0.318,0.468,0.992,1.421L34,21.73c0,0,0-0.548,0-2.928c0-4.464-1.775-6.788-2.061-7.323
	C31.705,11.044,31,10.537,30,10.373v-0.362l-0.232-0.013h0.048c0,0,0.023,0.166,0.032,0.17c-0.156,0.061-1.658,0.733-1.926,1.233
	C27.636,11.937,26,14.339,26,18.803c0,2.38,0,2.928,0,2.928l-2.992,1.884C23.68,22.661,24,22.193,24,22.193V20.52
	c0-0.852-1.5-0.521-1.5-0.521h-0.011c0,0-1.489-0.33-1.489,0.521v1.674c0,0,0.162,0.561,1.093,1.717l-3.948,2.315
	C18.878,25.214,19,24.721,19,24.721v-1.674c0-0.854-1.049-1.049-1.049-1.049H17.94c0,0-0.94,0.195-0.94,1.049v1.674
	c0,0-0.113,0.563,0.828,1.728l-0.016,0.032l-6.883,3.895c0,0-0.344,0.214-0.639,0.885c-0.379,1.012-0.257,1.2-0.257,1.864L12,32.665
	v10.12c0,0.219,0.281,0.396,0.5,0.396s0.5-0.178,0.5-0.396v-9.834l0.172-0.584l12.403-3.129c0,0,0.425,0.885,0.425,1.737
	c0,1.264,0,6.57,0,6.57s0.089,3.38,1.92,6.981c-1.421,0.883-6.114,3.886-6.114,3.886l-0.024,1.579l7.086-1.546
	c0.082,1.151,0.816,1.456,0.979,1.501c-0.02,0.006-0.035,0.051-0.035,0.051h-0.039c0,0,0.052,0.009,0.103-0.003
	c0.001,0.001,0.008,0.003,0.008,0.003h0.038c0,0,0.014-0.023,0.034-0.088c0.267-0.105,0.817-0.466,0.885-1.442l7.102,1.534
	l0.006-1.584c0,0-4.6-3.006-6.021-3.889C33.756,40.928,34,37.546,34,37.546s0-5.307,0-6.57c0-0.853,0.446-1.737,0.446-1.737
	l12.244,3.129L47,32.951v9.834c0,0.219,0.281,0.396,0.5,0.396s0.5-0.178,0.5-0.396v-10.12l1.81,0.459
	C49.81,32.46,49.777,32.271,49.397,31.26z"/>
</svg>
