<?xml version="1.0" encoding="utf-8"?>
<!-- Generator: Adobe Illustrator 15.0.0, SVG Export Plug-In . SVG Version: 6.00 Build 0)  -->
<!DOCTYPE svg PUBLIC "-//W3C//DTD SVG 1.1//EN" "http://www.w3.org/Graphics/SVG/1.1/DTD/svg11.dtd">
<svg version="1.1" id="Layer_1" xmlns="http://www.w3.org/2000/svg" xmlns:xlink="http://www.w3.org/1999/xlink" x="0px" y="0px"
	 width="68px" height="68px" viewBox="0 0 68 68" enable-background="new 0 0 68 68" xml:space="preserve">
<g>
	<path fill="#1AB250" d="M34,66C16.355,66,2,51.645,2,34S16.355,2,34,2c17.645,0,32,14.355,32,32S51.645,66,34,66z"/>
	<path fill="#FFFFFF" d="M34,4c16.568,0,30,13.431,30,30S50.568,64,34,64S4,50.569,4,34S17.432,4,34,4 M34,0C15.252,0,0,15.252,0,34
		s15.252,34,34,34c18.748,0,34-15.252,34-34S52.748,0,34,0L34,0z"/>
</g>
<g>
	<polygon fill="#FFFFFF" points="11.307,37.68 11.799,36.576 46.941,36.576 47.556,37.618 47.738,38.599 42.648,39.704 
		15.109,39.704 	"/>
	<path fill="#FFFFFF" d="M18.238,40.439"/>
	<path fill="#FFFFFF" d="M18.238,40.439h4.108c0,0,0.553,2.822-2.085,2.822C17.932,43.262,18.238,40.439,18.238,40.439z"/>
	<path fill="#FFFFFF" d="M24.186,40.439h4.11c0,0,0.553,2.822-2.085,2.822C23.881,43.262,24.186,40.439,24.186,40.439z"/>
	<path fill="#FFFFFF" d="M30.075,40.439h4.108c0,0,0.552,2.822-2.086,2.822C29.768,43.262,30.075,40.439,30.075,40.439z"/>
	<path fill="#FFFFFF" d="M36.086,40.439h4.108c0,0,0.553,2.822-2.085,2.822C35.779,43.262,36.086,40.439,36.086,40.439z"/>
	<path fill="#FFFFFF" d="M41.543,40.501l3.987-0.858c0,0-0.185,1.347-1.227,1.655C42.648,41.789,42.281,41.115,41.543,40.501z"/>
	<polygon fill="#FFFFFF" points="46.697,39.397 47.556,39.091 47.556,40.501 42.71,44.242 18.361,44.242 12.656,40.808 
		11.799,38.783 12.533,38.845 13.514,40.563 18.666,43.566 42.525,43.566 46.697,40.378 	"/>
	<circle fill="#FFFFFF" cx="10.202" cy="34.612" r="1.901"/>
	<polygon fill="#FFFFFF" points="12.718,33.57 12.718,35.165 42.342,35.165 37.803,33.755 	"/>
	<polygon fill="#FFFFFF" points="23.758,33.142 17.686,31.117 17.686,28.726 31.424,28.726 38.232,30.564 38.232,31.975 
		37.128,33.079 	"/>
	<rect x="37.496" y="31.056" fill="#FFFFFF" width="22.203" height="0.98"/>
	<rect x="45.408" y="30.196" fill="#FFFFFF" width="6.808" height="2.394"/>
	<polygon fill="#FFFFFF" points="25.658,27.988 25.658,26.885 26.641,25.904 29.584,25.904 29.584,25.29 32.037,25.29 
		32.037,26.027 36.761,26.027 36.761,26.518 30.688,26.518 30.688,28.05 	"/>
	<polygon fill="#FFFFFF" points="23.94,29.093 22.408,23.818 23.021,23.757 24.555,29.215 	"/>
</g>
</svg>
