<?xml version="1.0" encoding="utf-8"?>
<!-- Generator: Adobe Illustrator 15.0.0, SVG Export Plug-In . SVG Version: 6.00 Build 0)  -->
<!DOCTYPE svg PUBLIC "-//W3C//DTD SVG 1.1//EN" "http://www.w3.org/Graphics/SVG/1.1/DTD/svg11.dtd">
<svg version="1.1" id="Layer_1" xmlns="http://www.w3.org/2000/svg" xmlns:xlink="http://www.w3.org/1999/xlink" x="0px" y="0px"
	 width="66px" height="81px" viewBox="0 0 66 81" enable-background="new 0 0 66 81" xml:space="preserve">
<path fill-rule="evenodd" clip-rule="evenodd" fill="#FFFFFF" d="M66,33c0,32-33,48-33,48S0,65,0,33C0,14.774,14.774,0,33,0
	S66,14.774,66,33z"/>
<g>
	<circle fill="#1AB250" cx="33" cy="33" r="30"/>
</g>
<g>
	<polygon fill="#FFFFFF" points="10.307,36.68 10.799,35.576 45.941,35.576 46.556,36.618 46.738,37.599 41.648,38.704 
		14.109,38.704 	"/>
	<path fill="#FFFFFF" d="M17.238,39.439"/>
	<path fill="#FFFFFF" d="M17.238,39.439h4.108c0,0,0.553,2.822-2.085,2.822C16.932,42.262,17.238,39.439,17.238,39.439z"/>
	<path fill="#FFFFFF" d="M23.186,39.439h4.11c0,0,0.553,2.822-2.085,2.822C22.881,42.262,23.186,39.439,23.186,39.439z"/>
	<path fill="#FFFFFF" d="M29.075,39.439h4.108c0,0,0.552,2.822-2.086,2.822C28.768,42.262,29.075,39.439,29.075,39.439z"/>
	<path fill="#FFFFFF" d="M35.086,39.439h4.108c0,0,0.553,2.822-2.085,2.822C34.779,42.262,35.086,39.439,35.086,39.439z"/>
	<path fill="#FFFFFF" d="M40.543,39.501l3.987-0.858c0,0-0.185,1.347-1.227,1.655C41.648,40.789,41.281,40.115,40.543,39.501z"/>
	<polygon fill="#FFFFFF" points="45.697,38.397 46.556,38.091 46.556,39.501 41.71,43.242 17.361,43.242 11.656,39.808 
		10.799,37.783 11.533,37.845 12.514,39.563 17.666,42.566 41.525,42.566 45.697,39.378 	"/>
	<circle fill="#FFFFFF" cx="9.202" cy="33.612" r="1.901"/>
	<polygon fill="#FFFFFF" points="11.718,32.57 11.718,34.165 41.342,34.165 36.803,32.755 	"/>
	<polygon fill="#FFFFFF" points="22.758,32.142 16.686,30.117 16.686,27.726 30.424,27.726 37.232,29.564 37.232,30.975 
		36.128,32.079 	"/>
	<rect x="36.496" y="30.056" fill="#FFFFFF" width="22.203" height="0.98"/>
	<rect x="44.408" y="29.196" fill="#FFFFFF" width="6.808" height="2.394"/>
	<polygon fill="#FFFFFF" points="24.658,26.988 24.658,25.885 25.641,24.904 28.584,24.904 28.584,24.29 31.037,24.29 
		31.037,25.027 35.761,25.027 35.761,25.518 29.688,25.518 29.688,27.05 	"/>
	<polygon fill="#FFFFFF" points="22.94,28.093 21.408,22.818 22.021,22.757 23.555,28.215 	"/>
</g>
</svg>
