<?xml version="1.0" encoding="utf-8"?>
<!-- Generator: Adobe Illustrator 15.0.0, SVG Export Plug-In . SVG Version: 6.00 Build 0)  -->
<!DOCTYPE svg PUBLIC "-//W3C//DTD SVG 1.1//EN" "http://www.w3.org/Graphics/SVG/1.1/DTD/svg11.dtd">
<svg version="1.1" id="Layer_1" xmlns="http://www.w3.org/2000/svg" xmlns:xlink="http://www.w3.org/1999/xlink" x="0px" y="0px"
	 width="68px" height="67.998px" viewBox="0 0 68 67.998" enable-background="new 0 0 68 67.998" xml:space="preserve">
<g>
	<path fill-rule="evenodd" clip-rule="evenodd" fill="#2355A6" d="M34,65.998C16.355,65.998,2,51.644,2,34C2,16.355,16.355,2,34,2
		s32,14.355,32,32C66,51.644,51.645,65.998,34,65.998z"/>
	<path fill="#FFFFFF" d="M34,4c16.568,0,30,13.432,30,30S50.568,63.998,34,63.998S4,50.568,4,34S17.432,4,34,4 M34,0
		C15.252,0,0,15.252,0,34c0,18.746,15.252,33.998,34,33.998S68,52.746,68,34C68,15.252,52.748,0,34,0L34,0z"/>
</g>
<path fill="#FFFFFF" d="M53.397,35.26c-0.295-0.671-0.641-0.885-0.641-0.885l-6.89-3.895l0.15-0.032
	C46.959,29.284,47,28.721,47,28.721v-1.674c0-0.854-1.248-1.049-1.248-1.049h-0.011c0,0-0.741,0.195-0.741,1.049v1.674
	c0,0-0.035,0.493,0.699,1.505l-3.962-2.315C42.669,26.754,43,26.193,43,26.193V24.52c0-0.852-1.797-0.521-1.797-0.521h-0.011
	c0,0-1.192-0.33-1.192,0.521v1.674c0,0,0.318,0.468,0.992,1.421L38,25.73c0,0,0-0.548,0-2.928c0-4.464-1.775-6.788-2.061-7.323
	C35.705,15.044,35,14.537,34,14.373v-0.362l-0.232-0.013h0.048c0,0,0.023,0.166,0.032,0.17c-0.156,0.061-1.658,0.733-1.926,1.233
	C31.636,15.937,30,18.339,30,22.803c0,2.38,0,2.928,0,2.928l-2.992,1.884C27.68,26.661,28,26.193,28,26.193V24.52
	c0-0.852-1.5-0.521-1.5-0.521h-0.011c0,0-1.489-0.33-1.489,0.521v1.674c0,0,0.162,0.561,1.093,1.717l-3.948,2.315
	C22.878,29.214,23,28.721,23,28.721v-1.674c0-0.854-1.049-1.049-1.049-1.049H21.94c0,0-0.94,0.195-0.94,1.049v1.674
	c0,0-0.113,0.563,0.828,1.728l-0.016,0.032l-6.883,3.895c0,0-0.344,0.214-0.639,0.885c-0.379,1.012-0.257,1.2-0.257,1.864L16,36.665
	v10.12c0,0.219,0.281,0.396,0.5,0.396s0.5-0.178,0.5-0.396v-9.834l0.172-0.584l12.403-3.129c0,0,0.425,0.885,0.425,1.737
	c0,1.264,0,6.57,0,6.57s0.089,3.38,1.92,6.981c-1.421,0.883-6.114,3.886-6.114,3.886l-0.024,1.579l7.086-1.546
	c0.082,1.151,0.816,1.456,0.979,1.501c-0.02,0.006-0.035,0.051-0.035,0.051h-0.039c0,0,0.052,0.009,0.103-0.003
	c0.001,0.001,0.008,0.003,0.008,0.003h0.038c0,0,0.014-0.023,0.034-0.088c0.267-0.105,0.817-0.466,0.885-1.442l7.102,1.534
	l0.006-1.584c0,0-4.6-3.006-6.021-3.889C37.756,44.928,38,41.546,38,41.546s0-5.307,0-6.57c0-0.853,0.446-1.737,0.446-1.737
	l12.244,3.129L51,36.951v9.834c0,0.219,0.281,0.396,0.5,0.396s0.5-0.178,0.5-0.396v-10.12l1.81,0.459
	C53.81,36.46,53.777,36.271,53.397,35.26z"/>
</svg>
