<?xml version="1.0" encoding="utf-8"?>
<!-- Generator: Adobe Illustrator 15.0.0, SVG Export Plug-In . SVG Version: 6.00 Build 0)  -->
<!DOCTYPE svg PUBLIC "-//W3C//DTD SVG 1.1//EN" "http://www.w3.org/Graphics/SVG/1.1/DTD/svg11.dtd">
<svg version="1.1" id="Layer_1" xmlns="http://www.w3.org/2000/svg" xmlns:xlink="http://www.w3.org/1999/xlink" x="0px" y="0px"
	 width="60px" height="60px" viewBox="0 0 60 60" enable-background="new 0 0 60 60" xml:space="preserve">
<g>
	<circle fill="#1AB250" cx="30" cy="30" r="30"/>
</g>
<g>
	<polygon fill="#FFFFFF" points="7.307,33.68 7.799,32.576 42.941,32.576 43.556,33.618 43.738,34.599 38.648,35.704 11.109,35.704 
			"/>
	<path fill="#FFFFFF" d="M14.238,36.439"/>
	<path fill="#FFFFFF" d="M14.238,36.439h4.108c0,0,0.553,2.822-2.085,2.822C13.932,39.262,14.238,36.439,14.238,36.439z"/>
	<path fill="#FFFFFF" d="M20.186,36.439h4.11c0,0,0.553,2.822-2.085,2.822C19.881,39.262,20.186,36.439,20.186,36.439z"/>
	<path fill="#FFFFFF" d="M26.075,36.439h4.108c0,0,0.552,2.822-2.086,2.822C25.768,39.262,26.075,36.439,26.075,36.439z"/>
	<path fill="#FFFFFF" d="M32.086,36.439h4.108c0,0,0.553,2.822-2.085,2.822C31.779,39.262,32.086,36.439,32.086,36.439z"/>
	<path fill="#FFFFFF" d="M37.543,36.501l3.987-0.858c0,0-0.185,1.347-1.227,1.655C38.648,37.789,38.281,37.115,37.543,36.501z"/>
	<polygon fill="#FFFFFF" points="42.697,35.397 43.556,35.091 43.556,36.501 38.71,40.242 14.361,40.242 8.656,36.808 7.799,34.783 
		8.533,34.845 9.514,36.563 14.666,39.566 38.525,39.566 42.697,36.378 	"/>
	<circle fill="#FFFFFF" cx="6.202" cy="30.612" r="1.901"/>
	<polygon fill="#FFFFFF" points="8.718,29.57 8.718,31.165 38.342,31.165 33.803,29.755 	"/>
	<polygon fill="#FFFFFF" points="19.758,29.142 13.686,27.117 13.686,24.726 27.424,24.726 34.232,26.564 34.232,27.975 
		33.128,29.079 	"/>
	<rect x="33.496" y="27.056" fill="#FFFFFF" width="22.203" height="0.98"/>
	<rect x="41.408" y="26.196" fill="#FFFFFF" width="6.808" height="2.394"/>
	<polygon fill="#FFFFFF" points="21.658,23.988 21.658,22.885 22.641,21.904 25.584,21.904 25.584,21.29 28.037,21.29 
		28.037,22.027 32.761,22.027 32.761,22.518 26.688,22.518 26.688,24.05 	"/>
	<polygon fill="#FFFFFF" points="19.94,25.093 18.408,19.818 19.021,19.757 20.555,25.215 	"/>
</g>
</svg>
