<?xml version="1.0" encoding="utf-8"?>
<!-- Generator: Adobe Illustrator 15.0.0, SVG Export Plug-In . SVG Version: 6.00 Build 0)  -->
<!DOCTYPE svg PUBLIC "-//W3C//DTD SVG 1.1//EN" "http://www.w3.org/Graphics/SVG/1.1/DTD/svg11.dtd">
<svg version="1.1" id="Layer_1" xmlns="http://www.w3.org/2000/svg" xmlns:xlink="http://www.w3.org/1999/xlink" x="0px" y="0px"
	 width="66px" height="81px" viewBox="0 0 66 81" enable-background="new 0 0 66 81" xml:space="preserve">
<path fill-rule="evenodd" clip-rule="evenodd" fill="#FFFFFF" d="M66,33c0,32-33,48-33,48S0,65,0,33C0,14.774,14.774,0,33,0
	S66,14.774,66,33z"/>
<g>
	<circle fill="#1AB250" cx="33" cy="33" r="30"/>
</g>
<g>
	<path fill="#FFFFFF" d="M19.517,36.297c-2.268,0-4.109,1.84-4.109,4.11c0,2.27,1.842,4.109,4.109,4.109
		c2.27,0,4.109-1.84,4.109-4.109C23.626,38.137,21.786,36.297,19.517,36.297z M19.517,41.864c-0.805,0-1.458-0.652-1.458-1.457
		c0-0.806,0.653-1.458,1.458-1.458c0.807,0,1.459,0.652,1.459,1.458C20.976,41.212,20.323,41.864,19.517,41.864z"/>
	<path fill="#FFFFFF" d="M47.149,36.297c-2.27,0-4.109,1.84-4.109,4.11c0,2.27,1.84,4.109,4.109,4.109s4.109-1.84,4.109-4.109
		C51.259,38.137,49.419,36.297,47.149,36.297z M47.149,41.864c-0.806,0-1.459-0.652-1.459-1.457c0-0.806,0.653-1.458,1.459-1.458
		s1.459,0.652,1.459,1.458C48.608,41.212,47.955,41.864,47.149,41.864z"/>
	<path fill="#FFFFFF" d="M14.683,38.156h-4.109v-3.522h1.41V21.482h29.472v14.325l-2.349,2.231v2.466h-9.275v-2.349h-5.402
		c0,0-0.822-3.171-4.932-3.171S14.683,38.156,14.683,38.156z"/>
	<path fill="#FFFFFF" d="M51.671,24.535h-9.277v11.507l-1.762,1.762l1.527,0.587l2.348-3.405h5.167l2.701,4.814h3.053v-6.223
		L51.671,24.535z M51.435,29.976h-5.791v-4.227h5.166l0.625,2.27V29.976z"/>
</g>
</svg>
