<?xml version="1.0" encoding="utf-8"?>
<!-- Generator: Adobe Illustrator 15.0.0, SVG Export Plug-In . SVG Version: 6.00 Build 0)  -->
<!DOCTYPE svg PUBLIC "-//W3C//DTD SVG 1.1//EN" "http://www.w3.org/Graphics/SVG/1.1/DTD/svg11.dtd">
<svg version="1.1" id="Layer_1" xmlns="http://www.w3.org/2000/svg" xmlns:xlink="http://www.w3.org/1999/xlink" x="0px" y="0px"
	 width="68px" height="68px" viewBox="0 0 68 68" enable-background="new 0 0 68 68" xml:space="preserve">
<g>
	<path fill="#1AB250" d="M34,66C16.355,66,2,51.645,2,34S16.355,2,34,2s32,14.355,32,32S51.645,66,34,66z"/>
	<path fill="#FFFFFF" d="M34,4c16.567,0,30,13.431,30,30S50.567,64,34,64C17.431,64,4,50.569,4,34S17.431,4,34,4 M34,0
		C15.252,0,0,15.252,0,34s15.252,34,34,34s34-15.252,34-34S52.748,0,34,0L34,0z"/>
</g>
<g>
	<path fill="#FFFFFF" d="M20.517,37.297c-2.268,0-4.109,1.84-4.109,4.11c0,2.27,1.842,4.109,4.109,4.109
		c2.27,0,4.109-1.84,4.109-4.109C24.626,39.137,22.786,37.297,20.517,37.297z M20.517,42.864c-0.805,0-1.458-0.652-1.458-1.457
		c0-0.806,0.653-1.458,1.458-1.458c0.807,0,1.459,0.652,1.459,1.458C21.976,42.212,21.323,42.864,20.517,42.864z"/>
	<path fill="#FFFFFF" d="M48.149,37.297c-2.27,0-4.109,1.84-4.109,4.11c0,2.27,1.84,4.109,4.109,4.109s4.109-1.84,4.109-4.109
		C52.259,39.137,50.419,37.297,48.149,37.297z M48.149,42.864c-0.806,0-1.459-0.652-1.459-1.457c0-0.806,0.653-1.458,1.459-1.458
		s1.459,0.652,1.459,1.458C49.608,42.212,48.955,42.864,48.149,42.864z"/>
	<path fill="#FFFFFF" d="M15.683,39.156h-4.109v-3.522h1.41V22.482h29.472v14.325l-2.349,2.231v2.466h-9.275v-2.349h-5.402
		c0,0-0.822-3.171-4.932-3.171S15.683,39.156,15.683,39.156z"/>
	<path fill="#FFFFFF" d="M52.671,25.535h-9.277v11.507l-1.762,1.762l1.527,0.587l2.348-3.405h5.167l2.701,4.814h3.053v-6.223
		L52.671,25.535z M52.435,30.976h-5.791v-4.227h5.166l0.625,2.27V30.976z"/>
</g>
</svg>
