<?xml version="1.0" encoding="utf-8"?>
<!-- Generator: Adobe Illustrator 15.0.0, SVG Export Plug-In . SVG Version: 6.00 Build 0)  -->
<!DOCTYPE svg PUBLIC "-//W3C//DTD SVG 1.1//EN" "http://www.w3.org/Graphics/SVG/1.1/DTD/svg11.dtd">
<svg version="1.1" id="Layer_1" xmlns="http://www.w3.org/2000/svg" xmlns:xlink="http://www.w3.org/1999/xlink" x="0px" y="0px"
	 width="60px" height="60px" viewBox="0 0 60 60" enable-background="new 0 0 60 60" xml:space="preserve">
<g>
	<circle fill="#1AB250" cx="30" cy="30" r="30"/>
</g>
<g>
	<path fill="#FFFFFF" d="M16.517,33.297c-2.268,0-4.109,1.84-4.109,4.11c0,2.27,1.842,4.109,4.109,4.109
		c2.27,0,4.109-1.84,4.109-4.109C20.626,35.137,18.786,33.297,16.517,33.297z M16.517,38.864c-0.805,0-1.458-0.652-1.458-1.457
		c0-0.806,0.653-1.458,1.458-1.458c0.807,0,1.459,0.652,1.459,1.458C17.976,38.212,17.323,38.864,16.517,38.864z"/>
	<path fill="#FFFFFF" d="M44.149,33.297c-2.27,0-4.109,1.84-4.109,4.11c0,2.27,1.84,4.109,4.109,4.109s4.109-1.84,4.109-4.109
		C48.259,35.137,46.419,33.297,44.149,33.297z M44.149,38.864c-0.806,0-1.459-0.652-1.459-1.457c0-0.806,0.653-1.458,1.459-1.458
		s1.459,0.652,1.459,1.458C45.608,38.212,44.955,38.864,44.149,38.864z"/>
	<path fill="#FFFFFF" d="M11.683,35.156H7.573v-3.522h1.41V18.482h29.472v14.325l-2.349,2.231v2.466h-9.275v-2.349h-5.402
		c0,0-0.822-3.171-4.932-3.171S11.683,35.156,11.683,35.156z"/>
	<path fill="#FFFFFF" d="M48.671,21.535h-9.277v11.507l-1.762,1.762l1.527,0.587l2.348-3.405h5.167l2.701,4.814h3.053v-6.223
		L48.671,21.535z M48.435,26.976h-5.791v-4.227h5.166l0.625,2.27V26.976z"/>
</g>
</svg>
